<svg width="30" height="23" viewBox="0 0 30 23" fill="none" xmlns="http://www.w3.org/2000/svg">
<path d="M7.00031 22.1965C3.13412 22.1965 0 19.0615 0 15.194C0 11.3278 3.13412 8.19278 7.00031 8.19278C7.00031 8.19278 6.96644 5.59168 4.85332 1.84801C4.61859 1.09789 5.03701 0.299086 5.7876 0.0657068C6.32015 -0.101813 6.88054 0.0610196 7.24242 0.440063C12.1013 5.75452 14.0033 12.0093 14.0033 15.194C14.0033 19.0615 10.8692 22.1965 7.00031 22.1965Z" fill="#50DCAA"/>
<path d="M22.997 22.1965C19.1308 22.1965 15.9967 19.0614 15.9967 15.194C15.9967 11.3278 19.1308 8.19278 22.997 8.19278C22.997 8.19278 22.9631 5.59168 20.85 1.84801C20.6153 1.09789 21.0337 0.299085 21.7843 0.0657058C22.3168 -0.101814 22.8772 0.0610186 23.239 0.440062C28.098 5.75451 30 12.0093 30 15.194C30 19.0615 26.8659 22.1965 22.997 22.1965Z" fill="#50DCAA"/>
</svg>
